<svg width="1800" height="972" viewBox="0 0 1800 972" fill="none" xmlns="http://www.w3.org/2000/svg">
<path d="M1357.14 567.9C1357.53 575.635 1358.3 581.437 1358.3 587.238C1358.3 646.802 1357.91 706.366 1358.69 765.93C1358.69 777.92 1354.82 786.042 1346.31 793.778C1296.03 840.965 1236.46 869.973 1168.39 878.869C1050.42 894.727 939.419 873.841 839.631 807.702C735.201 738.082 674.09 639.067 657.458 514.911C640.827 393.463 664.034 279.75 737.135 179.188C809.849 79.012 910.798 23.316 1032.25 5.91099C1133.58 -8.78657 1232.21 3.20352 1324.65 50.0037C1430.63 103.766 1499.09 187.697 1526.16 304.504C1531.19 326.55 1526.94 332.352 1504.5 332.352C1436.43 332.352 1367.97 332.352 1298.74 332.352C1296.03 326.937 1293.32 321.909 1291 316.494C1266.25 260.798 1223.7 227.535 1164.52 214.771C1123.53 205.875 1082.53 206.649 1042.69 217.865C951.41 244.166 901.128 306.824 884.497 398.104C876.761 441.423 878.695 484.355 893.78 525.741C924.335 609.671 985.833 656.085 1072.86 670.009C1102.25 674.65 1131.26 673.877 1159.88 668.462C1216.74 657.632 1261.99 629.01 1294.87 581.05C1301.83 571.38 1308.79 566.739 1320.78 567.513C1332.39 568.286 1344.38 567.9 1357.14 567.9Z" fill="white"/>
<path d="M1799.23 552.815C1719.55 552.815 1642.2 552.815 1564.84 552.815C1560.59 539.665 1559.04 405.839 1562.91 373.35C1568.32 372.963 1574.12 372.19 1579.92 372.19C1644.9 372.19 1709.88 372.19 1774.86 372.19C1797.29 372.19 1800 374.897 1800 397.33C1800 443.228 1800 488.997 1800 534.636C1800 540.051 1799.61 545.08 1799.23 552.815Z" fill="#BE202E"/>
<path d="M206.474 612.765C210.729 624.755 213.436 634.425 216.917 643.708C228.521 675.037 250.567 695.536 283.443 703.271C316.319 711.394 349.196 712.554 381.298 700.951C420.75 686.64 442.022 655.311 439.315 615.86C437.768 589.172 424.23 569.833 402.571 555.522C381.685 541.598 358.091 535.41 332.951 534.636C309.744 533.863 286.538 534.636 263.331 534.249C245.152 534.249 242.058 531.542 242.058 513.75C241.8 470.689 241.8 427.628 242.058 384.566C242.058 367.161 245.539 364.454 263.718 364.454C284.217 364.067 304.716 365.227 325.215 363.68C340.3 362.907 355.771 360.586 369.695 355.558C408.759 341.634 429.259 308.371 426.164 267.373C423.457 227.534 398.703 199.3 357.705 190.404C335.272 185.762 312.838 186.923 291.179 194.658C256.756 207.035 237.03 231.789 228.908 266.212C227.361 272.014 226.587 277.816 225.427 285.164C219.238 285.551 213.436 286.325 207.635 286.325C151.939 286.325 96.2427 286.325 40.5467 286.325C18.1136 286.325 15.0194 282.457 17.34 260.411C31.6508 126.972 124.864 29.8909 258.303 9.77842C324.829 -0.277806 390.581 2.42966 454.399 25.6363C537.557 55.805 595.573 110.728 619.553 197.753C631.544 241.845 631.93 286.712 621.1 331.191C612.205 368.708 594.026 401.585 566.178 428.659C562.31 432.269 558.571 436.008 554.961 439.876C554.575 440.262 554.188 441.036 553.414 442.97C558.442 446.451 563.471 450.705 568.499 454.573C621.101 494.411 647.788 547.013 650.109 612.765C654.363 726.091 591.319 816.211 490.756 860.69C420.363 892.019 346.101 898.208 270.68 890.859C249.794 888.925 228.521 885.057 208.408 879.255C95.856 847.927 30.1037 772.892 4.96314 659.952C3.41603 652.99 2.25569 646.028 1.09536 638.68C-1.99887 615.473 0.32179 612.765 23.1417 612.765C38.226 612.765 53.3104 612.765 68.7815 612.765C107.975 612.765 147.04 612.765 185.975 612.765C192.55 612.765 199.126 612.765 206.474 612.765Z" fill="white"/>
<path d="M1374.93 970.535C1374.93 831.295 1374.93 694.376 1374.93 554.749C1278.24 554.749 1182.7 554.749 1086.01 554.749C1085.23 547.787 1084.07 543.146 1083.69 538.891C1083.69 491.189 1083.69 443.486 1083.69 395.783C1084.07 376.444 1087.94 372.19 1106.89 372.19C1246.13 372.19 1385.37 372.19 1524.61 372.19C1543.95 372.19 1547.82 376.058 1547.82 395.783C1548.08 579.374 1548.08 762.964 1547.82 946.555C1547.82 967.441 1543.95 971.696 1523.84 971.696C1478.97 971.696 1433.72 971.696 1388.85 971.696C1384.99 971.696 1381.12 970.922 1374.93 970.535Z" fill="white"/>
</svg>
